<?xml version="1.0" encoding="UTF-8"?><svg id="Layer_2" xmlns="http://www.w3.org/2000/svg" viewBox="0 0 1000 170.7216"><g id="Components"><g id="_0bffcf60-ec44-49ed-ac5d-7c18a587c740_5"><path d="m101.5712,90.2616c-5.2425-3.1589-10.7004-4.8823-16.372-5.1701v-1.6157c5.2408-1.2201,9.9632-3.2667,14.164-6.1395,4.2007-2.8711,7.5566-6.6238,10.071-11.2562,2.5127-4.6307,3.7699-10.2136,3.7699-16.7486,0-7.9706-1.9035-15.0795-5.7087-21.3267-3.8069-6.2472-9.5509-11.2019-17.2337-14.8641-7.6845-3.6622-17.3061-5.4932-28.8665-5.4932H0v160.489h64.7342c12.279,0,22.4577-1.9017,30.536-5.7087,8.0783-3.8052,14.1269-9.0107,18.1493-15.6181,4.0206-6.6057,6.0318-14.0731,6.0318-22.4038,0-8.1136-1.6695-15.0425-5.0085-20.7882-3.339-5.744-7.6307-10.1955-12.8714-13.3561ZM28.7588,31.5592h29.6205c8.6169,0,15.1148,2.0112,19.4956,6.0318,4.3791,4.0224,6.5704,9.1554,6.5704,15.4026,0,4.7393-1.168,8.8323-3.5006,12.279-2.3343,3.4467-5.5118,6.1042-9.5324,7.9706-4.0224,1.8681-8.5815,2.8005-13.6793,2.8005h-28.9742V31.5592Zm54.4478,106.4182c-4.7039,4.093-12.3699,6.1395-22.9962,6.1395h-31.4515v-47.285h32.4209c5.9594,0,11.111,1.1142,15.4565,3.339,4.3438,2.2266,7.7013,5.2606,10.071,9.102,2.3696,3.8414,3.5545,8.1688,3.5545,12.9787,0,6.392-2.3528,11.6328-7.0551,15.7258Z" style="fill:#fff; stroke-width:0px;"/><path d="m154.0384,0c-4.4532,0-8.2769,1.4907-11.4712,4.4696-3.196,2.9806-4.7931,6.6246-4.7931,10.9331,0,4.1654,1.5971,7.7552,4.7931,10.7711,3.1943,3.0159,7.018,4.5239,11.4712,4.5239,4.5239,0,8.3829-1.508,11.5789-4.5239,3.1943-3.0159,4.7931-6.641,4.7931-10.8788s-1.5989-7.8448-4.7931-10.8254c-3.196-2.9788-7.0551-4.4696-11.5789-4.4696Z" style="fill:#fff; stroke-width:0px;"/><rect x="140.036" y="47.7159" width="28.0048" height="120.4206" style="fill:#fff; stroke-width:0px;"/><path d="m295.7698,75.7741c-4.7039-9.37-11.3635-16.6409-19.9803-21.811-8.6169-5.1701-18.8141-7.7552-30.5899-7.7552-11.7051,0-21.8653,2.5851-30.4821,7.7552s-15.2781,12.441-19.9803,21.811c-4.7039,9.3717-7.0551,20.3039-7.0551,32.7984,0,12.3514,2.3511,23.1759,7.0551,32.4744,4.7022,9.3002,11.3635,16.5521,19.9803,21.7576,8.6169,5.2072,18.777,7.8095,30.4821,7.8095,11.7758,0,21.973-2.6023,30.5899-7.8095,8.6169-5.2054,15.2764-12.4574,19.9803-21.7576,4.7022-9.2985,7.0551-20.123,7.0551-32.4744,0-12.4944-2.3528-23.4267-7.0551-32.7984Zm-24.5581,52.6171c-2.1189,5.9611-5.3502,10.7004-9.694,14.2178-4.3455,3.5191-9.7849,5.2778-16.3182,5.2778s-11.9391-1.7587-16.2105-5.2778c-4.2731-3.5174-7.4691-8.2567-9.5863-14.2178-2.1189-5.9594-3.1775-12.6022-3.1775-19.9265,0-7.4674,1.0586-14.1644,3.1775-20.0876,2.1172-5.925,5.3132-10.6453,9.5863-14.1644,4.2714-3.5174,9.6754-5.2778,16.2105-5.2778s11.9727,1.7604,16.3182,5.2778c4.3438,3.5191,7.5751,8.2584,9.694,14.2178,2.1172,5.9611,3.1775,12.6392,3.1775,20.0342,0,7.3243-1.0603,13.9671-3.1775,19.9265Z" style="fill:#fff; stroke-width:0px;"/><path d="m628.5082,60.6946c-4.884-4.9176-10.3773-8.5798-16.4797-10.9865-6.1042-2.405-12.4591-3.6079-19.0648-3.6079-10.485,0-19.6938,2.6928-27.6282,8.0783-7.9344,5.3855-14.1092,12.7822-18.5262,22.1884-4.4153,9.4079-6.6238,20.179-6.6238,32.3132s2.2438,22.8717,6.7324,32.2055c4.4868,9.3355,10.8417,16.6417,19.0639,21.9187,8.2222,5.2787,17.9696,7.9172,29.2439,7.9172,8.1136,0,15.2949-1.3106,21.5421-3.931,6.2472-2.6212,11.4346-6.0861,15.5638-10.3945,4.1292-4.3084,7.1261-8.9753,8.9943-14.0024l-13.8947-4.4161c-1.4373,3.5191-3.6079,6.7685-6.5169,9.7474-2.9073,2.9806-6.4988,5.3692-10.7711,7.1632-4.2722,1.7958-9.2088,2.6928-14.8098,2.6928-8.2584,0-15.4207-1.956-21.4879-5.8698-6.0689-3.9138-10.7547-9.407-14.0567-16.4806-3.0859-6.6057-4.7105-14.2441-4.9138-22.8881h89.359v-6.3549c0-10.1955-1.4002-19.0648-4.2007-26.6046-2.8005-7.5398-6.6427-13.7689-11.5251-18.6882Zm-68.8806,20.5193c3.1943-6.6057,7.6466-11.9188,13.3561-15.9412,5.7078-4.0206,12.3678-6.0318,19.9799-6.0318,7.6828,0,14.2531,1.9758,19.7111,5.9241,5.4562,3.95,9.6569,9.3355,12.6022,16.1566,2.3919,5.5443,3.7953,11.6903,4.2438,18.4185h-74.5882c.3802-6.6539,1.9405-12.8309,4.6952-18.5262Z" style="fill:#fff; stroke-width:0px;"/><path d="m743.4804,51.216c-6.1404-3.4097-13.3027-5.1158-21.4887-5.1158-9.1201,0-17.2165,2.3343-24.2892,7.0012-5.6422,3.7246-10.0817,9.3047-13.3248,16.7294l-.0848-22.115h-14.1101v120.4206h14.6487v-75.0744c0-6.8935,1.4537-12.871,4.3627-17.9343,2.9073-5.0615,6.8745-8.9391,11.9016-11.6328,5.0254-2.6919,10.6987-4.0387,17.0183-4.0387,9.2631,0,16.6581,2.8548,22.1884,8.5626,5.5286,5.7095,8.2937,13.4828,8.2937,23.3198v76.7978h14.541v-77.8749c0-9.5492-1.7415-17.5922-5.2235-24.1272-3.4838-6.5333-8.2946-11.507-14.4332-14.9184Z" style="fill:#fff; stroke-width:0px;"/><path d="m846.551,103.7255l-18.4185-4.4161c-7.3967-1.794-12.8357-4.3084-16.3177-7.5398-3.4838-3.2313-5.2244-7.395-5.2244-12.4944,0-6.0318,2.5851-10.9494,7.7552-14.7564,5.1701-3.8052,11.7405-5.7087,19.7111-5.7087,7.8982,0,14.0196,1.8138,18.3643,5.4398,4.3446,3.626,7.4493,8.2041,9.3174,13.7327l13.3561-3.4467c-1.7958-5.8164-4.4696-10.8417-8.0249-15.0795-3.5536-4.236-8.0611-7.5217-13.5173-9.8551-5.4579-2.3334-11.9929-3.501-19.6034-3.501-8.1154,0-15.3492,1.4373-21.7033,4.3084-6.3558,2.8729-11.3467,6.8582-14.9727,11.9559-3.626,5.0995-5.439,11.0235-5.439,17.7723,0,8.1154,2.567,14.8468,7.7017,20.1953,5.1331,5.3502,12.871,9.2821,23.2112,11.7948l19.6034,4.7393c6.5333,1.5803,11.4346,3.9853,14.7029,7.2166,3.2667,3.2313,4.9004,7.289,4.9004,12.1713,0,6.1042-2.7462,11.2019-8.2403,15.2949-5.4924,4.093-12.8003,6.1395-21.9187,6.1395-7.9706,0-14.5237-1.7777-19.6576-5.3313-5.1339-3.5553-8.5626-8.9572-10.2859-16.2109l-14.0024,3.339c1.4356,6.7504,4.1283,12.441,8.0783,17.0717,3.9482,4.6324,8.9753,8.1507,15.0795,10.5557,6.1025,2.4058,13.1037,3.6087,21.0036,3.6087,8.8323,0,16.6417-1.508,23.4267-4.5239,6.7866-3.0159,12.0808-7.1796,15.8878-12.4944,3.8052-5.3132,5.7087-11.4173,5.7087-18.3108,0-7.9706-2.5308-14.6116-7.594-19.9265-5.0615-5.3132-12.6926-9.2261-22.8881-11.7405Z" style="fill:#fff; stroke-width:0px;"/><path d="m1000,105.9874c0-10.1955-1.4002-19.0648-4.2007-26.6046-2.8005-7.5398-6.6427-13.7689-11.5251-18.6882-4.884-4.9176-10.3773-8.5798-16.4797-10.9865-6.1042-2.405-12.4591-3.6079-19.0648-3.6079-10.485,0-19.6938,2.6928-27.6282,8.0783-7.9344,5.3855-14.1092,12.7822-18.5262,22.1884-4.4153,9.4079-6.6238,20.179-6.6238,32.3132s2.2438,22.8717,6.7324,32.2055c4.4868,9.3355,10.8417,16.6417,19.0639,21.9187,8.2222,5.2787,17.9696,7.9172,29.2439,7.9172,8.1136,0,15.2949-1.3106,21.5421-3.931,6.2472-2.6212,11.4346-6.0861,15.5638-10.3945,4.1292-4.3084,7.1261-8.9753,8.9943-14.0024l-13.8947-4.4161c-1.4373,3.5191-3.6079,6.7685-6.5169,9.7474-2.9073,2.9806-6.4988,5.3692-10.7711,7.1632-4.2722,1.7958-9.2088,2.6928-14.8098,2.6928-8.2584,0-15.4207-1.956-21.4879-5.8698-6.0689-3.9138-10.7547-9.407-14.0567-16.4806-3.0859-6.6057-4.7105-14.2441-4.9138-22.8881h89.359v-6.3549Zm-84.6064-24.7735c3.1943-6.6057,7.6466-11.9188,13.3561-15.9412,5.7078-4.0206,12.3678-6.0318,19.9799-6.0318,7.6828,0,14.2531,1.9758,19.7111,5.9241,5.4562,3.95,9.6569,9.3355,12.6022,16.1566,2.3919,5.5443,3.7953,11.6903,4.2438,18.4185h-74.5882c.3802-6.6539,1.9404-12.8309,4.6951-18.5262Z" style="fill:#fff; stroke-width:0px;"/><path d="m519.0486,88.0698c-7.5076-13.9533-20.0446-23.8303-35.3004-27.8115-3.7745-.9848-7.6184-1.562-11.4664-1.7439l47.5502-30.2554c4.7603-3.0287,6.8996-8.7035,5.3219-14.121-1.577-5.4182-6.4276-9.0584-12.0705-9.0584h-106.8025l-.0353-.0014c-9.3918-.2482-18.4121,2.4533-26.1796,7.8258-18.4398,12.7498-24.3433,37.2366-13.7321,56.9589,5.8848,10.937,15.7127,18.679,27.6735,21.7999,1.7704.4619,3.5605.8053,5.3586,1.0408l-81.829,52.0659c-5.3247,3.3892-7.717,9.7378-5.952,15.7979,1.7649,6.0602,7.1908,10.1315,13.5026,10.1315h143.0033l.0515.0021c.5116.0139,1.0204.0208,1.5299.0208,11.3884,0,22.3752-3.4446,31.862-10.0039,23.5191-16.2631,31.0482-47.495,17.5144-72.648Zm-99.0668-15.6344c-6.5635,4.1753-14.3255,5.3919-21.8526,3.4294-7.5208-1.9625-13.7071-6.8414-17.418-13.7383-6.5572-12.1869-2.7618-27.9092,8.6403-35.7933,4.8963-3.3857,10.9746-5.107,16.8427-4.9337l93.9937.007-80.2062,51.029Zm72.2667,74.8532c-7.0141,4.8498-15.165,7.2906-23.5746,7.0938-.0009,0-135.8109-.0104-135.8147-.0104l115.3423-73.3835c9.439-6.0047,20.6006-7.7558,31.4246-4.9323,10.8164,2.8228,19.7105,9.8362,25.0449,19.75,9.432,17.5296,3.975,40.1433-12.4226,51.4824Z" style="fill:#fff; stroke-width:0px;"/></g></g></svg>